<?xml version="1.0" encoding="UTF-8" standalone="no"?>
<!DOCTYPE svg PUBLIC "-//W3C//DTD SVG 1.1//EN" "http://www.w3.org/Graphics/SVG/1.1/DTD/svg11.dtd">
<svg width="100%" height="100%" viewBox="0 0 800 800" version="1.1" xmlns="http://www.w3.org/2000/svg" xmlns:xlink="http://www.w3.org/1999/xlink" xml:space="preserve" xmlns:serif="http://www.serif.com/" style="fill-rule:evenodd;clip-rule:evenodd;stroke-linejoin:round;stroke-miterlimit:1.41421;">
    <g transform="matrix(1,0,0,0.957996,0,0)">
        <rect x="0" y="0" width="800" height="835.077" style="fill:rgb(36,41,48);"/>
    </g>
    <g transform="matrix(1.80523,0,0,1.80523,-225.635,-102.92)">
        <g transform="matrix(0.828079,0,0,0.828082,163.054,265.191)">
            <path d="M0,32.361C-2.979,32.361 -5.5,29.946 -5.5,26.968L-5.5,5.394C-5.5,2.416 -2.979,0 0,0C2.979,0 5.5,2.416 5.5,5.394L5.5,26.968C5.5,29.946 2.979,32.361 0,32.361" style="fill:white;fill-rule:nonzero;"/>
        </g>
        <g transform="matrix(0.828079,0,0,0.828082,205.966,152.26)">
            <path d="M0,305.115C-2.979,305.115 -5,302.7 -5,299.722L-5,5.393C-5,2.415 -2.979,0 0,0C2.979,0 5,2.415 5,5.393L5,299.722C5,302.7 2.979,305.115 0,305.115" style="fill:white;fill-rule:nonzero;"/>
        </g>
        <g transform="matrix(0.828079,0,0,0.828082,249.706,107.598)">
            <path d="M0,412.984C-2.979,412.984 -5.5,410.569 -5.5,407.591L-5.5,5.393C-5.5,2.415 -2.979,0 0,0C2.979,0 5.5,2.415 5.5,5.393L5.5,407.591C5.5,410.569 2.979,412.984 0,412.984" style="fill:white;fill-rule:nonzero;"/>
        </g>
        <g transform="matrix(0.828079,0,0,0.828082,293.445,113.34)">
            <path d="M0,399.115C-2.979,399.115 -5,396.7 -5,393.722L-5,5.393C-5,2.415 -2.979,0 0,0C2.979,0 5,2.415 5,5.393L5,393.722C5,396.7 2.979,399.115 0,399.115" style="fill:white;fill-rule:nonzero;"/>
        </g>
        <g transform="matrix(0.828079,0,0,0.828082,335.943,145.879)">
            <path d="M0,320.525C-2.979,320.525 -5,318.11 -5,315.132L-5,5.393C-5,2.415 -2.979,0 0,0C2.979,0 5,2.415 5,5.393L5,315.132C5,318.11 2.979,320.525 0,320.525" style="fill:white;fill-rule:nonzero;"/>
        </g>
        <g transform="matrix(0.828079,0,0,0.828082,378.441,198.836)">
            <path d="M0,192.623C-2.979,192.623 -5,190.208 -5,187.23L-5,5.393C-5,2.415 -2.979,0 0,0C2.979,0 5,2.415 5,5.393L5,187.23C5,190.208 2.979,192.623 0,192.623" style="fill:white;fill-rule:nonzero;"/>
        </g>
        <g transform="matrix(0.828079,0,0,0.828082,421.352,183.523)">
            <path d="M0,229.607C-2.979,229.607 -5.5,227.192 -5.5,224.214L-5.5,5.393C-5.5,2.415 -2.979,0 0,0C2.979,0 5.5,2.415 5.5,5.393L5.5,224.214C5.5,227.192 2.979,229.607 0,229.607" style="fill:white;fill-rule:nonzero;"/>
        </g>
        <g transform="matrix(0.828079,0,0,0.828082,465.506,189.265)">
            <path d="M0,215.738C-2.979,215.738 -5.5,213.323 -5.5,210.345L-5.5,5.393C-5.5,2.415 -2.979,0 0,0C2.979,0 5.5,2.415 5.5,5.393L5.5,210.345C5.5,213.323 2.979,215.738 0,215.738" style="fill:white;fill-rule:nonzero;"/>
        </g>
        <g transform="matrix(0.828079,0,0,0.828082,508.418,233.29)">
            <path d="M0,109.41C-2.979,109.41 -5,106.995 -5,104.017L-5,5.393C-5,2.415 -2.979,0 0,0C2.979,0 5,2.415 5,5.393L5,104.017C5,106.995 2.979,109.41 0,109.41" style="fill:white;fill-rule:nonzero;"/>
        </g>
        <g transform="matrix(0.828079,0,0,0.828082,184.717,251.792)">
            <path d="M0,64.721C-2.979,64.721 -5,62.306 -5,59.328L-5,5.393C-5,2.415 -2.979,0 0,0C2.979,0 5,2.415 5,5.393L5,59.328C5,62.306 2.979,64.721 0,64.721" style="fill:rgb(94,226,239);fill-rule:nonzero;"/>
        </g>
        <g transform="matrix(0.828079,0,0,0.828082,227.629,129.29)">
            <path d="M0,360.591C-2.979,360.591 -5.5,358.176 -5.5,355.198L-5.5,5.394C-5.5,2.416 -2.979,0 0,0C2.979,0 5.5,2.416 5.5,5.394L5.5,355.198C5.5,358.176 2.979,360.591 0,360.591" style="fill:rgb(94,226,239);fill-rule:nonzero;"/>
        </g>
        <g transform="matrix(0.828079,0,0,0.828082,271.783,111.426)">
            <path d="M0,403.738C-2.979,403.738 -5.5,401.323 -5.5,398.345L-5.5,5.393C-5.5,2.415 -2.979,0 0,0C2.979,0 5.5,2.415 5.5,5.393L5.5,398.345C5.5,401.323 2.979,403.738 0,403.738" style="fill:rgb(94,226,239);fill-rule:nonzero;"/>
        </g>
        <g transform="matrix(0.828079,0,0,0.828082,314.694,105.683)">
            <path d="M0,417.607C-2.979,417.607 -5,415.192 -5,412.214L-5,5.393C-5,2.415 -2.979,0 0,0C2.979,0 5,2.415 5,5.393L5,412.214C5,415.192 2.979,417.607 0,417.607" style="fill:rgb(94,226,239);fill-rule:nonzero;"/>
        </g>
        <g transform="matrix(0.828079,0,0,0.828082,357.192,164.382)">
            <path d="M0,275.837C-2.979,275.837 -5,273.422 -5,270.444L-5,5.394C-5,2.416 -2.979,0 0,0C2.979,0 5,2.416 5,5.394L5,270.444C5,273.422 2.979,275.837 0,275.837" style="fill:rgb(94,226,239);fill-rule:nonzero;"/>
        </g>
        <g transform="matrix(0.828079,0,0,0.828082,399.689,185.437)">
            <path d="M0,224.984C-2.979,224.984 -5,222.569 -5,219.591L-5,5.394C-5,2.415 -2.979,0 0,0C2.979,0 5,2.415 5,5.394L5,219.591C5,222.569 2.979,224.984 0,224.984" style="fill:rgb(94,226,239);fill-rule:nonzero;"/>
        </g>
        <g transform="matrix(0.828079,0,0,0.828082,443.429,174.591)">
            <path d="M0,251.181C-2.979,251.181 -5.5,248.766 -5.5,245.788L-5.5,5.394C-5.5,2.416 -2.979,0 0,0C2.979,0 5.5,2.416 5.5,5.394L5.5,245.788C5.5,248.766 2.979,251.181 0,251.181" style="fill:rgb(94,226,239);fill-rule:nonzero;"/>
        </g>
        <g transform="matrix(0.828079,0,0,0.828082,487.169,201.388)">
            <path d="M0,186.459C-2.979,186.459 -5,184.044 -5,181.066L-5,5.393C-5,2.415 -2.979,0 0,0C2.979,0 5,2.415 5,5.393L5,181.066C5,184.044 2.979,186.459 0,186.459" style="fill:rgb(94,226,239);fill-rule:nonzero;"/>
        </g>
        <g transform="matrix(0.828079,0,0,0.828082,530.08,258.173)">
            <path d="M0,49.312C-2.979,49.312 -5.5,46.897 -5.5,43.919L-5.5,5.394C-5.5,2.416 -2.979,0 0,0C2.979,0 5.5,2.416 5.5,5.394L5.5,43.919C5.5,46.897 2.979,49.312 0,49.312" style="fill:rgb(94,226,239);fill-rule:nonzero;"/>
        </g>
    </g>
</svg>
